<?xml version="1.0" encoding="UTF-8" standalone="no"?>
<!DOCTYPE svg PUBLIC "-//W3C//DTD SVG 1.1//EN" "http://www.w3.org/Graphics/SVG/1.1/DTD/svg11.dtd">
<svg width="100%" height="100%" viewBox="0 0 359 602" version="1.1" xmlns="http://www.w3.org/2000/svg" xmlns:xlink="http://www.w3.org/1999/xlink" xml:space="preserve" xmlns:serif="http://www.serif.com/" style="fill-rule:evenodd;clip-rule:evenodd;stroke-linecap:round;stroke-linejoin:round;stroke-miterlimit:1.5;">
    <g id="Frame0" transform="matrix(0.186805,0,0,0.556925,0,0)">
        <rect x="0" y="0" width="1920" height="1080" style="fill:none;"/>
        <g transform="matrix(5.35319,0,0,1.79557,-220.717,-453.445)">
            <g transform="matrix(0.750341,0,0,0.750341,-493.619,167.431)">
                <path d="M951.81,442.799L1179.65,898.476L723.971,898.476L951.81,442.799Z" style="fill:rgb(0,6,163);stroke:black;stroke-width:14.14px;"/>
            </g>
            <g transform="matrix(1,0,0,1,0.0715235,0)">
                <g transform="matrix(1,0,0,1,-737.049,0)">
                    <circle cx="866.421" cy="674.434" r="29.203" style="fill:rgb(204,203,0);stroke:black;stroke-width:10.61px;"/>
                </g>
                <g transform="matrix(1,0,0,1,-554.808,0)">
                    <circle cx="866.421" cy="674.434" r="29.203" style="fill:rgb(204,203,0);stroke:black;stroke-width:10.61px;"/>
                </g>
            </g>
            <g transform="matrix(1,0,0,1,-765.536,-7.0024)">
                <circle cx="985.461" cy="509.242" r="116.415" style="stroke:black;stroke-width:10.61px;"/>
            </g>
            <g transform="matrix(0.825455,0,0,1.1219,-569.351,-66.2203)">
                <path d="M956.945,295.192L1121.06,471.445L792.826,471.445L956.945,295.192Z" style="fill:rgb(56,0,112);stroke:black;stroke-width:10.77px;"/>
            </g>
            <g transform="matrix(1,0,0,1,0.867208,-2.84217e-14)">
                <g transform="matrix(1,0,0,1,-739.437,0)">
                    <ellipse cx="921.336" cy="501.285" rx="9.947" ry="26.259" style="fill:rgb(204,203,0);"/>
                </g>
                <g transform="matrix(1,0,0,1,-663.843,0)">
                    <ellipse cx="921.336" cy="501.285" rx="9.947" ry="26.259" style="fill:rgb(204,203,0);"/>
                </g>
            </g>
        </g>
    </g>
</svg>
